<svg width="633" height="237" viewBox="0 0 633 237" fill="none" xmlns="http://www.w3.org/2000/svg">
<g clip-path="url(#clip0_1624_9281)">
<path d="M275.132 145.07C259.672 134.526 272.328 131.168 287.233 131.529C280.349 123.981 285.151 116.989 303.303 109.413C311.462 106 321.093 108.22 330.419 113.021C338.468 98.6469 348.876 88.9071 360.089 94.5123C369.386 99.1463 376.158 104.668 380.294 110.495C383.291 109.358 386.511 108.276 389.953 107.304C397.419 105.168 402.803 107.027 406.55 111.272C421.426 102.865 436.303 98.0641 444.629 104.224C459.117 114.907 460.699 123.759 450.513 132.334C465.362 133.111 476.353 138.244 456.369 149.704C474.132 148.095 486.65 150.204 478.629 160.915C460.671 184.75 381.238 187.331 322.592 175.205C285.345 172.486 254.593 164.91 249.153 152.534C245.157 143.433 258.257 142.573 275.132 145.07Z" fill="#C5E1F9"/>
<path d="M98.3629 189.634C95.0878 183.002 99.1122 177.036 114.488 173.29C131.28 169.183 147.322 170.765 160.561 174.317C129.309 155.142 92.8674 127.866 126.006 123.037C136.359 121.539 152.29 127.644 169.998 137.522C150.181 116.516 139.245 99.0071 151.18 95.1501C162.254 91.5428 184.985 108.331 209.159 130.89C195.338 111.716 187.316 94.7894 193.45 86.3538C198.446 79.4722 209.215 86.6313 221.621 100.228C221.011 87.8245 224.813 80.1381 233.583 81.2481C241.799 82.3025 248.543 96.3988 253.372 113.464C261.144 86.3261 281.932 69.011 302.998 76.2256C327.755 84.6612 308.188 149.787 297.28 180.81L98.3629 189.634Z" fill="#D4EDFF"/>
<path d="M509.381 139.935C492.922 147.205 482.043 161.94 478.906 178.506C493.283 187.357 511.49 189.244 527.949 181.974C544.407 174.704 555.259 159.97 558.396 143.404C544.019 134.58 525.812 132.693 509.381 139.935Z" fill="#ACD4F8"/>
<path d="M552.04 145.93L481.82 176.925" stroke="white" stroke-width="1.63" stroke-miterlimit="10"/>
<path d="M537.58 152.395L549.348 157.972" stroke="white" stroke-width="1.63" stroke-miterlimit="10"/>
<path d="M525.617 157.695L540.133 164.549" stroke="white" stroke-width="1.63" stroke-miterlimit="10"/>
<path d="M513.654 162.994L537.912 174.427" stroke="white" stroke-width="1.63" stroke-miterlimit="10"/>
<path d="M501.666 168.268L525.285 179.422" stroke="white" stroke-width="1.63" stroke-miterlimit="10"/>
<path d="M489.703 173.566L502.859 179.754" stroke="white" stroke-width="1.63" stroke-miterlimit="10"/>
<path d="M538.939 151.563L542.742 139.104" stroke="white" stroke-width="1.63" stroke-miterlimit="10"/>
<path d="M526.977 156.834L532.916 137.438" stroke="white" stroke-width="1.63" stroke-miterlimit="10"/>
<path d="M514.988 162.134L522.454 137.826" stroke="white" stroke-width="1.63" stroke-miterlimit="10"/>
<path d="M503.025 167.435L510.686 142.461" stroke="white" stroke-width="1.63" stroke-miterlimit="10"/>
<path d="M491.062 172.707L497.64 151.258" stroke="white" stroke-width="1.63" stroke-miterlimit="10"/>
<path d="M456.203 134.968C444.962 151.34 443.269 171.513 449.93 188.911C468.581 188.884 486.788 180.115 498.057 163.743C509.325 147.372 510.99 127.226 504.329 109.828C485.706 109.828 467.471 118.597 456.203 134.968Z" fill="#ACD4F8"/>
<path d="M499.805 115.877L451.762 185.72" stroke="white" stroke-width="1.8" stroke-miterlimit="10"/>
<path d="M489.98 130.363L504.274 128.754" stroke="white" stroke-width="1.8" stroke-miterlimit="10"/>
<path d="M481.793 142.267L499.417 140.297" stroke="white" stroke-width="1.8" stroke-miterlimit="10"/>
<path d="M473.605 154.171L503.053 150.869" stroke="white" stroke-width="1.8" stroke-miterlimit="10"/>
<path d="M465.391 166.074L494.061 162.883" stroke="white" stroke-width="1.8" stroke-miterlimit="10"/>
<path d="M457.203 177.979L473.162 176.203" stroke="white" stroke-width="1.8" stroke-miterlimit="10"/>
<path d="M490.757 128.781L487.121 114.852" stroke="white" stroke-width="1.8" stroke-miterlimit="10"/>
<path d="M482.57 140.686L476.908 118.986" stroke="white" stroke-width="1.8" stroke-miterlimit="10"/>
<path d="M474.382 152.59L467.305 125.424" stroke="white" stroke-width="1.8" stroke-miterlimit="10"/>
<path d="M466.195 164.493L458.924 136.578" stroke="white" stroke-width="1.8" stroke-miterlimit="10"/>
<path d="M457.979 176.397L451.734 152.422" stroke="white" stroke-width="1.8" stroke-miterlimit="10"/>
<path d="M490.035 180.005C445.628 179.617 308.048 178.035 224.534 173.235C69.7191 164.327 -56.7311 179.228 26.3108 196.127C49.5137 200.844 -17.4305 229.231 146.433 235.558C290.313 241.135 436.968 229.037 507.937 223.848C578.906 218.659 611.684 209.446 626.893 205.312C640.271 201.677 645.239 181.254 490.035 180.005Z" fill="#E9F6FF"/>
<path d="M108.16 116.212C108.16 116.212 105.745 114.602 104.996 111.994C104.719 111.05 105.024 109.191 106.023 108.914C107.022 108.636 108.16 109.58 108.549 110.967C109.298 113.575 108.16 116.212 108.16 116.212Z" fill="#8DCFFF"/>
<path d="M109.713 120.457C109.713 120.457 109.325 117.987 110.574 115.989C111.018 115.268 112.433 114.407 113.21 114.879C113.988 115.351 114.015 116.683 113.377 117.737C112.128 119.707 109.713 120.457 109.713 120.457Z" fill="#8DCFFF"/>
<path d="M110.574 125.702C110.574 125.702 111.24 123.26 113.183 121.956C113.877 121.484 115.515 121.262 116.014 122.011C116.514 122.76 116.042 123.981 115.015 124.675C113.072 126.007 110.574 125.702 110.574 125.702Z" fill="#8DCFFF"/>
<path d="M109.686 120.595C109.686 120.595 107.438 121.233 105.245 120.456C104.44 120.178 103.247 119.096 103.497 118.403C103.746 117.709 104.968 117.487 106.133 117.903C107.542 118.458 108.77 119.389 109.686 120.595Z" fill="#8DCFFF"/>
<path d="M110.907 125.645C110.907 125.645 108.631 126.338 106.439 125.561C105.634 125.256 104.468 124.174 104.718 123.425C104.968 122.675 106.217 122.453 107.382 122.87C109.603 123.647 110.907 125.645 110.907 125.645Z" fill="#8DCFFF"/>
<path d="M111.297 132.749C111.297 132.749 109.437 133.609 107.744 132.998C107.134 132.776 106.301 131.805 106.578 131.056C106.856 130.307 107.827 130.001 108.716 130.307C110.409 130.917 111.297 132.749 111.297 132.749Z" fill="#8DCFFF"/>
<path d="M111.574 132.693C111.574 132.693 111.907 130.778 113.323 129.502C113.822 129.03 115.044 128.614 115.488 129.113C115.932 129.613 115.654 130.556 114.905 131.25C113.517 132.526 111.574 132.693 111.574 132.693Z" fill="#8DCFFF"/>
<path d="M119.04 160.47C119.376 160.503 119.714 160.475 120.04 160.387L119.873 159.943L119.956 160.165L119.873 159.943C119.845 159.943 118.818 160.304 117.486 159.36C116.154 158.417 114.766 156.169 113.823 152.95C112.518 148.538 111.797 142.239 111.685 134.22C111.547 124.896 109.826 120.124 108.66 116.96C108.355 116.156 108.105 115.462 107.939 114.852L107.467 114.99C107.661 115.601 107.911 116.322 108.216 117.127C109.354 120.263 111.075 124.98 111.214 134.22C111.436 152.062 114.627 157.973 117.236 159.776C117.77 160.155 118.391 160.393 119.04 160.47Z" fill="#8DCFFF"/>
<path d="M422.73 84.2726C422.73 84.2726 424.646 81.581 427.615 80.8872C428.698 80.6375 430.779 81.1092 431.057 82.2747C431.334 83.4401 430.196 84.6888 428.642 85.0773C425.645 85.771 422.73 84.2726 422.73 84.2726Z" fill="#8DCFFF"/>
<path d="M418.734 89.9048C418.734 89.9048 421.565 88.2399 424.563 88.7949C425.673 89.0169 427.366 90.3211 427.144 91.4865C426.922 92.6519 425.368 93.3457 423.786 93.0404C420.76 92.4854 418.734 89.9048 418.734 89.9048Z" fill="#8DCFFF"/>
<path d="M422.564 84.356C422.564 84.356 419.9 82.8853 418.568 80.1382C418.096 79.1392 417.985 77.0581 418.845 76.6419C419.706 76.2256 421.038 77.1691 421.76 78.612C423.092 81.3591 422.564 84.356 422.564 84.356Z" fill="#8DCFFF"/>
<path d="M419.094 90.155C419.094 90.155 416.319 88.7121 415.014 85.965C414.515 84.966 414.431 82.8849 415.375 82.4409C416.319 81.9969 417.651 82.8849 418.345 84.3556C419.677 87.1027 419.094 90.155 419.094 90.155Z" fill="#8DCFFF"/>
<path d="M412.907 97.1188C412.907 97.1188 410.409 96.2031 409.409 94.122C409.021 93.345 409.132 91.6523 410.075 91.2084C411.019 90.7644 412.213 91.3749 412.74 92.4848C413.767 94.5937 412.907 97.1188 412.907 97.1188Z" fill="#8DCFFF"/>
<path d="M413.211 97.3143C413.211 97.3143 415.293 95.8714 417.763 95.9546C418.679 95.9824 420.205 96.7316 420.177 97.5918C420.15 98.452 418.956 99.0902 417.652 99.0347C415.182 98.9515 413.211 97.3143 413.211 97.3143Z" fill="#8DCFFF"/>
<path d="M394.672 129.974C394.951 130.321 395.301 130.605 395.699 130.807L395.949 130.252L395.838 130.529L395.949 130.252C395.893 130.224 394.644 129.613 394.255 127.532C393.867 125.451 394.644 122.066 396.726 118.209C399.557 112.909 404.691 106.388 411.935 98.8404C420.373 90.0718 423.12 84.0227 424.952 80.0269C425.334 79.1366 425.76 78.266 426.229 77.4185L425.674 77.1133C425.257 77.8347 424.841 78.7504 424.369 79.7771C422.565 83.7452 419.845 89.7111 411.491 98.3964C395.338 115.212 392.868 123.592 393.645 127.671C393.801 128.509 394.153 129.298 394.672 129.974Z" fill="#8DCFFF"/>
<path d="M61.1163 185.332C59.3122 182.558 61.5326 180.227 70.0533 178.978C79.3788 177.618 88.2603 178.534 95.5598 180.227C78.3242 171.874 58.202 160.137 76.5756 158.777C82.2931 158.361 91.0913 161.136 100.889 165.465C89.9811 156.557 83.9583 149.259 90.5917 147.9C96.7255 146.651 109.243 153.866 122.593 163.467C114.988 155.42 110.575 148.399 113.989 145.097C116.792 142.406 122.732 145.513 129.559 151.257C129.254 146.207 131.391 143.155 136.22 143.765C141.05 144.376 144.463 150.175 147.1 157.195C151.485 146.318 163.031 139.658 174.688 142.96C188.371 146.845 177.38 172.929 171.247 185.332H61.1163Z" fill="#ACD4F8"/>
<path d="M131.778 173.872L132.417 173.677C127.976 158.804 119.955 137.077 107.049 117.986C99.3332 106.582 93.4215 101.448 93.366 101.393L92.9219 101.892C93.0051 101.948 98.8614 107.026 106.522 118.375C113.627 128.864 123.757 147.011 131.778 173.872Z" fill="#ACD4F8"/>
<path d="M135.082 168.101L135.748 168.045C133.222 137.05 117.597 110.44 117.43 110.162L116.875 110.495C117.042 110.773 132.584 137.272 135.082 168.101Z" fill="#ACD4F8"/>
<path d="M123.398 171.015L124.064 170.959C122.787 156.058 116.487 146.624 111.408 141.351C105.913 135.607 100.639 133.36 100.584 133.332L100.334 133.942C100.389 133.97 105.552 136.162 110.964 141.823C115.96 147.04 122.149 156.336 123.398 171.015Z" fill="#ACD4F8"/>
<path d="M90.2572 97.5352C85.983 100.532 83.5128 104.361 84.734 106.082C85.9552 107.802 90.396 106.775 94.6424 103.779C98.8889 100.782 101.387 96.9525 100.166 95.2321C98.9444 93.5117 94.5037 94.5384 90.2572 97.5352Z" fill="#ACD4F8"/>
<path d="M91.7568 99.6718C90.3968 100.615 89.6197 101.836 90.0082 102.391C90.3968 102.946 91.7845 102.613 93.1445 101.642C94.5045 100.671 95.2816 99.4776 94.8931 98.9226C94.5045 98.3676 93.089 98.7006 91.7568 99.6718Z" fill="#0063CB"/>
<path d="M115.959 108.608C114.183 109.856 113.156 111.466 113.656 112.187C114.155 112.909 116.015 112.465 117.791 111.216C119.567 109.967 120.594 108.386 120.095 107.664C119.595 106.943 117.735 107.359 115.959 108.608Z" fill="#ACD4F8"/>
<path d="M116.569 109.523C116.014 109.911 115.681 110.411 115.848 110.633C116.014 110.855 116.597 110.744 117.152 110.327C117.707 109.911 118.068 109.439 117.902 109.218C117.735 108.996 117.152 109.107 116.569 109.523Z" fill="#0063CB"/>
<path d="M98.8616 132.332C97.0853 134.469 96.3359 136.8 97.2241 137.549C98.1122 138.298 100.249 137.105 102.026 134.941C103.802 132.776 104.551 130.473 103.691 129.752C102.831 129.03 100.666 130.168 98.8616 132.332Z" fill="#ACD4F8"/>
<path d="M99.9441 133.221C99.389 133.915 99.1392 134.636 99.4167 134.886C99.6943 135.136 100.388 134.747 100.943 134.053C101.498 133.36 101.748 132.638 101.471 132.388C101.193 132.139 100.527 132.527 99.9441 133.221Z" fill="#0063CB"/>
<path d="M112.322 166.824L112.1 166.658L112.211 166.602C113.238 166.214 113.904 165.464 113.682 164.909C113.46 164.355 112.489 164.271 111.462 164.687L111.212 164.798C111.208 164.751 111.217 164.702 111.24 164.66C111.378 163.578 111.073 162.634 110.49 162.551C109.907 162.468 109.325 163.272 109.186 164.355C109.158 164.438 109.158 164.549 109.13 164.632L109.047 164.549C108.187 163.855 107.215 163.661 106.854 164.132C106.494 164.604 106.882 165.492 107.743 166.186L107.965 166.325L107.854 166.38C106.827 166.769 106.161 167.546 106.383 168.073C106.605 168.6 107.604 168.711 108.603 168.323L108.853 168.212V168.323C108.686 169.405 109.019 170.348 109.574 170.459C110.129 170.57 110.74 169.71 110.907 168.628C110.907 168.545 110.934 168.461 110.934 168.35L111.018 168.434C111.878 169.127 112.877 169.321 113.238 168.878C113.599 168.434 113.182 167.49 112.322 166.824ZM109.88 167.546C109.675 167.511 109.485 167.416 109.334 167.274C109.183 167.132 109.077 166.948 109.03 166.746C108.983 166.544 108.996 166.333 109.069 166.139C109.141 165.944 109.269 165.775 109.437 165.653C109.605 165.531 109.805 165.462 110.012 165.453C110.219 165.444 110.425 165.496 110.602 165.603C110.78 165.711 110.922 165.868 111.011 166.055C111.099 166.243 111.131 166.452 111.101 166.658C111.081 166.797 111.033 166.931 110.96 167.051C110.887 167.172 110.791 167.276 110.677 167.359C110.564 167.442 110.434 167.501 110.297 167.533C110.16 167.565 110.018 167.569 109.88 167.546Z" fill="white"/>
<path d="M358.839 92.985C358.839 92.985 343.547 79.2495 355.342 57.4669C361.892 45.3685 358.451 12.3478 337.274 22.6148C316.097 32.8817 321.842 20.0897 309.88 25.7781C297.918 31.4665 292.617 40.0408 294.254 49.3921C295.892 58.7433 294.809 76.5579 287.454 79.9987C280.1 83.4395 244.879 102.586 267.582 126.81C290.285 151.035 372.828 133.22 358.839 92.985Z" fill="#212957"/>
<path d="M209.631 122.094C209.964 131.001 216.709 152.728 220.816 165.187H284.291L295.671 133.97C295.671 133.97 319.706 96.5376 278.324 71.7304C272.384 68.1508 241.494 70.7592 241.494 70.7592C241.494 70.7592 218.596 72.3131 188.26 117.821C187.317 119.236 209.159 109.246 209.631 122.094Z" fill="#7EB3FF"/>
<path d="M247.654 49.8647C248.126 52.2511 252.233 59.4379 234.359 76.0038C221.509 87.8802 262.392 89.2953 276.658 71.231C276.658 71.231 254.787 68.4007 261.92 28.4706C267.276 -1.47005 247.654 49.8647 247.654 49.8647Z" fill="#F7B68B"/>
<path d="M290.925 111.548C277.769 107.608 257.452 104.445 251.457 102.336C249.875 103.252 249.459 102.946 248.266 104.362C252.512 112.048 267.389 133.276 280.461 138.076C295.976 143.792 298.196 141.239 300.417 137.133C302.637 133.026 306.772 116.321 290.925 111.548Z" fill="#F7B68B"/>
<path d="M261.088 51.1966C260.172 45.4249 260.228 38.0161 261.921 28.4706C267.278 -1.47005 247.655 49.8647 247.655 49.8647C248.071 51.8903 251.152 57.4678 240.744 69.4551C249.182 67.6515 256.481 60.8254 261.088 51.1966Z" fill="#EC9568"/>
<path d="M243.38 15.6495C243.38 15.6495 238.634 45.1184 240.522 51.7503C242.409 58.3822 248.099 59.9638 254.788 50.8068C267.61 33.242 267.138 19.451 263.336 17.0647C259.534 14.6783 249.098 5.68777 243.38 15.6495Z" fill="#F7B68B"/>
<path d="M251.456 19.9229C246.849 20.6722 239.577 23.2528 234.831 11.3764C230.085 -0.49995 240.521 -2.88632 245.767 3.3016C251.012 9.48952 250.513 12.3199 247.182 9.46176C243.852 6.60366 249.097 -1.91513 253.843 3.77331C258.589 9.46176 260.477 18.0361 258.117 17.5643C255.758 17.0926 263.335 7.57487 266.194 11.8481C269.053 16.1214 270.94 22.3093 267.609 24.1962C264.279 26.0831 260.477 19.4512 263.807 21.8376C267.138 24.224 268.081 37.0438 263.807 38.9307C259.533 40.8176 259.533 37.5155 263.335 33.714C267.138 29.9124 261.92 22.0596 260.005 29.6627C259.838 30.3287 258.589 34.6574 258.589 34.6574L255.73 37.0438C255.73 37.0438 255.73 28.4695 257.646 25.3894C261.92 18.4245 261.781 18.258 251.456 19.9229Z" fill="#212957"/>
<path d="M299.834 138.159C298.141 139.324 297.613 140.24 294.866 139.879C290.675 139.324 277.575 131.832 271.385 127.115C261.532 119.651 250.764 105.416 250.236 105.443C251.152 107.247 265.363 132.526 280.461 138.076C294.644 143.292 297.725 141.627 299.834 138.159Z" fill="#EC9568"/>
<path d="M194.768 97.8062C195.392 95.1664 193.758 92.5206 191.117 91.8966C188.477 91.2726 185.83 92.9067 185.206 95.5464C184.582 98.1862 186.217 100.832 188.857 101.456C191.497 102.08 194.144 100.446 194.768 97.8062Z" fill="#F7F8FC"/>
<path d="M184.624 194.684C184.624 194.684 183.319 195.1 180.294 194.684C177.269 194.268 169.053 192.519 161.726 191.659C154.399 190.799 154.371 192.076 154.371 194.684C154.371 197.292 156.536 205.922 164.751 207.198C172.967 208.475 186.789 207.198 186.789 207.198C186.789 207.198 193.699 206.782 193.699 205.062C193.699 203.341 191.979 192.076 184.624 194.684Z" fill="#281616"/>
<path d="M244.713 160.525C244.713 160.525 189.814 139.797 171.663 139.797C153.511 139.797 146.156 146.706 154.372 158.388C162.587 170.07 214.877 208.502 214.877 208.502H247.294C247.294 208.502 268.055 183.861 244.713 160.525Z" fill="#281616"/>
<path d="M284.041 193.823C284.041 193.823 291.396 174.371 286.206 160.968C281.016 147.566 270.635 137.632 258.978 142.821C247.322 148.01 182.459 190.798 182.459 190.798L188.954 205.061C188.954 205.061 239.078 195.987 246.877 188.19C247.294 187.773 246.877 205.061 258.534 207.641C266.555 209.417 277.13 205.921 284.041 193.823Z" fill="#3B47BC"/>
<path d="M246.016 204.173C246.016 204.173 234.776 202.897 232.611 202.036C230.446 201.176 225.256 194.683 216.18 195.099C207.104 195.515 198.889 195.959 201.914 202.036C204.939 208.113 209.685 211.526 222.23 212.831C234.776 214.135 246.432 214.551 248.597 213.247C250.762 211.943 253.787 203.313 246.016 204.173Z" fill="#281616"/>
<path d="M185.068 149.314L207.966 173.067" stroke="#3B47BC" stroke-width="2.19" stroke-miterlimit="10"/>
<path d="M263.725 179.117L243.408 190.799" stroke="#281616" stroke-width="2.19" stroke-miterlimit="10"/>
<path d="M161.67 87.6855L188.953 103.474L176.574 122.732L174.909 123.564L159.949 89.7389L161.67 87.6855Z" fill="#C5E1F9"/>
<path d="M153.928 88.1289L158.146 89.5996L171.247 118.264L172.024 124.341C172.024 124.341 170.164 124.202 169.887 123.897C169.609 123.592 153.928 88.1289 153.928 88.1289Z" fill="#003E99"/>
<path d="M214.015 82.6348L209.741 82.7735C209.741 82.7735 194.115 95.0106 189.647 101.171C185.178 107.331 176.324 118.07 175.658 122.038C175.492 123.009 175.381 123.342 175.325 123.592C175.27 123.841 175.325 121.843 175.325 121.843C175.325 121.843 175.381 115.128 173.854 111.271C172.328 107.414 161.67 87.685 161.67 87.685C161.67 87.685 157.312 89.3499 156.48 89.4886C155.647 89.6274 171.106 123.508 171.106 123.508C171.106 123.508 172.466 125.201 174.493 124.702C176.519 124.202 177.601 124.674 179.1 122.676C179.544 122.093 180.71 119.402 180.71 119.402L214.015 82.6348Z" fill="#EAF4FE"/>
<path d="M217.734 80.0266L216.707 79.9434L178.739 120.817C178.739 120.817 178.406 121.649 178.545 122.093C178.683 122.537 177.934 124.036 176.269 124.174C174.603 124.313 172.411 124.674 171.106 124.147C169.802 123.62 153.926 88.1292 153.926 88.1292L153.232 88.4622L169.136 122.87C169.136 122.87 168.747 123.758 169.247 124.091C169.746 124.424 172.272 125.562 172.91 125.617C173.549 125.673 211.656 141.573 211.656 141.573L216.568 139.658L218.095 137.216L243.74 110.189L217.734 80.0266Z" fill="#0450CF"/>
<path d="M244.712 108.275L217.735 80.0273L179.711 121.317L216.763 138.771L246.433 110.079L244.712 108.275Z" fill="#0561FC"/>
<path d="M256.341 103.641C253.931 102.267 251.448 101.026 248.903 99.9223C244.628 98.0631 241.659 95.1773 240.41 95.2883C239.161 95.3993 232.222 99.395 232.222 99.395L222.092 104.279C222.092 104.279 220.177 105.971 220.648 106.998C221.12 108.025 221.564 107.969 222.452 107.886C223.341 107.803 232.944 104.334 232.944 104.334L219.649 111.632L215.791 114.102C215.791 114.102 214.931 114.962 214.875 115.6C214.82 116.238 215.125 117.126 215.958 117.043C216.791 116.96 217.429 117.126 218.317 116.627C219.205 116.127 225.311 113.38 225.311 113.38C225.311 113.38 218.622 116.571 217.429 117.903C216.235 119.235 216.263 119.818 216.513 120.484C216.763 121.15 217.651 121.261 217.651 121.261L222.841 118.542C222.841 118.542 221.342 119.402 221.453 119.762C221.564 120.123 222.064 120.734 222.73 120.65C223.396 120.567 229.169 118.68 229.169 118.68L234.748 117.348L242.047 116.544L251.151 114.24C251.151 114.24 253.871 113.186 254.037 112.631C254.204 112.076 258.7 105.916 256.341 103.641Z" fill="#F7B68B"/>
<path d="M216.569 139.659L179.933 122.732C179.933 122.732 179.489 123.815 177.629 124.647C175.77 125.48 171.939 125.313 171.939 125.313L211.656 141.574C211.656 141.574 216.375 141.13 216.569 139.659Z" fill="#0561FC"/>
<path d="M188.982 132.389C188.982 132.389 188.399 133.415 188.982 134.886C189.565 136.357 189.676 137.245 191.23 137.772C192.784 138.299 192.895 138.327 193.644 137.689C194.394 137.051 197.697 134.553 197.697 134.553L200.25 131.085C200.25 131.085 200.999 129.503 199.973 129.114C198.946 128.726 198.057 128.615 196.725 130.086C195.393 131.556 192.895 132.833 192.173 133.138C191.452 133.443 188.982 132.389 188.982 132.389Z" fill="#F7B68B"/>
<path d="M192.756 137.439C192.756 137.439 192.312 138.577 192.894 139.354C193.477 140.131 194.615 141.074 195.587 141.019C196.558 140.963 202.692 137.744 202.692 137.744L207.355 130.835L211.046 125.202C211.046 125.202 210.657 123.981 209.908 123.842C209.159 123.704 208.631 123.593 207.715 124.425C206.799 125.258 203.691 130.058 203.691 130.058L199.472 133.471C199.472 133.471 194.116 136.912 192.756 137.439Z" fill="#F7B68B"/>
<path d="M217.208 126.034C217.208 126.034 216.875 124.286 215.848 124.48C214.822 124.674 213.101 126.422 211.241 128.392C209.382 130.363 208.438 131.528 208.438 131.528L205.163 133.831L197.891 139.298L197.253 140.13C197.253 140.13 196.42 141.351 197.558 141.656C198.696 141.961 199.473 143.266 201.333 142.433C203.192 141.601 209.271 137.05 209.271 137.05L213.101 131.917L215.821 128.004L217.208 126.034Z" fill="#F7B68B"/>
<path d="M216.876 127.894C217.708 127.921 217.903 129.031 217.903 129.031L211.769 138.049C211.769 138.049 204.608 143.183 203.914 143.571C203.672 143.682 203.409 143.74 203.142 143.742C202.876 143.744 202.612 143.689 202.368 143.582C202.124 143.474 201.906 143.317 201.728 143.119C201.549 142.921 201.415 142.687 201.333 142.434C200.944 141.13 211.186 133.388 211.186 133.388C211.186 133.388 215.21 127.81 216.876 127.894Z" fill="#F7B68B"/>
<path d="M349.07 91.9304C349.07 91.9304 362.309 134.302 361.615 139.908C360.921 145.513 356.619 162.689 351.485 159.859C346.35 157.028 339.051 140.962 336.858 128.142C334.665 115.322 312.323 73.3389 349.07 91.9304Z" fill="#DD000B"/>
<path d="M335.665 87.1859C333.944 87.1859 313.627 85.0215 313.627 85.0215L299.778 91.0707C299.778 91.0707 292.867 90.6267 294.616 101.865C296.364 113.103 314.488 156.751 317.957 158.916C321.427 161.08 348.21 164.965 352.539 163.245C356.869 161.524 364.64 160.636 364.64 160.636C364.64 160.636 364.64 129.086 365.501 127.366C366.361 125.645 366.778 115.267 356.841 107.498C349.986 102.115 335.665 87.1859 335.665 87.1859Z" fill="#FD2227"/>
<path d="M305.412 96.2588C305.412 96.2588 334.36 135.134 334.804 140.767C335.248 146.4 330.058 162.8 324.424 161.079C318.79 159.359 308.437 145.096 303.691 132.97C298.945 120.844 282.487 81.5521 305.412 96.2588Z" fill="#DD000B"/>
<path d="M313.211 56.9121L315.792 85.0213L333.944 87.1857L329.642 69.4544L313.211 56.9121Z" fill="#F7B68B"/>
<path d="M332.029 78.806L330.475 78.1123C324.757 75.2542 318.485 71.0642 314.266 67.1794L313.184 54.748L329.614 68.1783L332.029 78.806Z" fill="#EC9568"/>
<path d="M346.045 40.9297C346.045 40.9297 347.349 55.1924 343.436 63.406C339.523 71.6195 339.994 78.1127 331.335 73.7839C322.676 69.4552 312.767 62.1018 310.602 57.3568C308.438 52.6118 311.907 46.1187 317.513 49.1432C323.12 52.1678 322.703 47.8391 328.31 48.6993C333.916 49.5595 344.324 48.6993 346.045 40.9297Z" fill="#F7B68B"/>
<path d="M341.299 167.99C341.299 167.99 387.983 147.678 406.995 143.794C426.007 139.909 442.41 129.531 434.638 150.259C426.867 170.987 374.994 208.17 374.994 208.17C374.994 208.17 324.008 219.852 341.299 167.99Z" fill="#281616"/>
<path d="M410.437 151.146C410.437 151.146 391.425 161.08 386.234 172.319" stroke="#3B47BC" stroke-width="2.19" stroke-miterlimit="10"/>
<path d="M322.676 151.397C322.676 151.397 323.037 155.642 323.037 156.558C323.037 157.474 327.116 158.584 331.363 158.584C335.609 158.584 367 140.492 369.942 139.187C372.884 137.883 379.739 136.052 381.405 135.885C383.07 135.719 384.347 131.085 383.431 128.116C382.82 126.173 382.209 124.453 381.266 123.898C380.794 123.62 380.239 123.62 379.545 124.064C377.519 125.341 369.387 132.361 369.387 132.361C369.387 132.361 350.375 135.885 342.798 139.187C335.221 142.489 326.367 146.596 322.676 151.397Z" fill="#F7B68B"/>
<path d="M391.008 125.173L381.266 123.896L383.43 128.114L382.154 134.58L387.483 135.495C387.483 135.495 388.232 134.58 387.316 134.219L385.096 133.303L388.787 132.748C389.897 132.554 390.092 132.193 390.092 131.638C390.092 131.083 388.981 130.695 388.981 130.695C388.981 130.695 391.007 129.973 391.202 129.418C391.396 128.863 391.757 128.114 391.368 127.559C390.98 127.004 391.563 125.534 391.008 125.173Z" fill="#EC9568"/>
<path d="M409.576 193.046C409.576 193.046 420.816 194.794 423.425 193.906C426.034 193.018 438.968 192.63 443.742 195.654C448.515 198.679 451.957 206.005 437.247 209.057C422.537 212.109 403.109 209.473 400.5 207.753C397.891 206.032 406.134 191.326 409.576 193.046Z" fill="#C5E1F9"/>
<path d="M411.323 192.187C411.323 192.187 356.424 152.423 346.044 147.678C335.664 142.933 317.956 133.859 313.627 143.349C309.297 152.839 308.436 165.826 310.601 177.508C312.766 189.19 333.527 203.453 348.625 204.729C353.815 205.145 349.93 184.833 349.93 184.833L401.803 206.005L411.323 192.187Z" fill="#3B47BC"/>
<path d="M401.36 200.4C401.36 200.4 325.285 172.319 321.399 168.434C317.514 164.549 320.983 183.557 322.26 188.302" stroke="#7E89FD" stroke-width="2.19" stroke-miterlimit="10"/>
<path d="M361.615 196.515C361.615 196.515 370.247 188.746 375.881 187.858C381.515 186.97 388.842 184.417 390.563 190.466C392.284 196.515 384.068 207.31 372.411 209.918C360.755 212.526 357.368 215.162 351.235 212.942C346.461 211.194 345.184 205.145 346.045 202.121C346.905 199.096 356.425 198.236 361.615 196.515Z" fill="#C5E1F9"/>
<path d="M432.972 121.705L409.547 135.274L420.205 151.812L421.648 152.534L434.443 123.453L432.972 121.705Z" fill="#C5E1F9"/>
<path d="M439.606 122.094L435.97 123.342L424.757 147.955L424.119 153.2C424.119 153.2 425.701 153.089 425.923 152.811C426.145 152.534 439.606 122.094 439.606 122.094Z" fill="#003E99"/>
<path d="M388.01 117.404L391.673 117.515C391.673 117.515 405.079 128.032 408.937 133.304C412.795 138.576 420.399 147.789 420.982 151.202C421.049 151.66 421.142 152.114 421.26 152.562C421.315 152.95 421.26 151.036 421.26 151.036C421.26 151.036 421.204 145.264 422.509 141.989C423.813 138.715 432.945 121.705 432.945 121.705C432.945 121.705 436.691 123.12 437.413 123.231C438.135 123.342 424.868 152.478 424.868 152.478C424.868 152.478 423.73 153.921 421.954 153.477C420.177 153.033 419.289 153.477 418.013 151.757C417.652 151.257 416.625 148.954 416.625 148.954L388.01 117.404Z" fill="#EAF4FE"/>
<path d="M384.819 115.157L385.679 115.102L418.346 150.176C418.346 150.176 418.624 150.869 418.513 151.258C418.402 151.646 419.04 152.923 420.456 153.062C421.871 153.2 423.758 153.478 424.869 153.034C425.979 152.59 439.606 122.094 439.606 122.094L440.217 122.372L426.589 151.924C426.589 151.924 426.922 152.701 426.478 152.978C426.034 153.256 423.897 154.227 423.342 154.282C422.787 154.338 390.092 168.018 390.092 168.018L385.846 166.381L384.541 164.272L362.504 141.102L384.819 115.157Z" fill="#0450CF"/>
<path d="M361.698 139.464L384.818 115.156L417.512 150.619L385.706 165.603L360.199 140.99L361.698 139.464Z" fill="#0561FC"/>
<path d="M350.43 137.217L355.315 135.081C358.646 133.61 360.949 131.362 361.949 131.446C362.948 131.529 368.332 134.637 368.332 134.637L376.242 138.438C376.242 138.438 377.741 139.77 377.352 140.575C376.964 141.38 376.658 141.324 375.937 141.269C375.215 141.213 367.777 138.494 367.777 138.494L378.157 144.182L381.155 146.125C381.155 146.125 381.821 146.763 381.876 147.29C381.932 147.817 381.682 148.455 381.016 148.4C380.35 148.344 379.906 148.455 379.184 148.095C378.463 147.734 373.744 145.542 373.744 145.542C373.744 145.542 378.962 148.039 379.906 149.066C380.849 150.093 380.794 150.564 380.6 151.092C380.405 151.619 379.712 151.702 379.712 151.702L375.659 149.593C375.659 149.593 376.853 150.259 376.742 150.537C376.672 150.739 376.541 150.915 376.367 151.039C376.193 151.163 375.984 151.23 375.77 151.23C375.243 151.175 370.719 149.676 370.719 149.676L366.361 148.65L360.672 148.039L353.567 146.263C353.567 146.263 352.318 146.569 352.179 146.152C352.04 145.736 348.599 139.021 350.43 137.217Z" fill="#F7B68B"/>
<path d="M385.846 166.38L417.292 151.812C417.292 151.812 417.68 152.756 419.262 153.45C420.844 154.143 424.175 154.005 424.175 154.005L390.092 168.018C390.092 168.018 386.012 167.629 385.846 166.38Z" fill="#0561FC"/>
<path d="M409.547 160.108C409.698 160.444 409.776 160.808 409.776 161.176C409.776 161.545 409.698 161.909 409.547 162.245C409.047 163.521 408.936 164.27 407.632 164.714C406.327 165.158 406.189 165.214 405.523 164.659C404.856 164.104 402.081 161.967 402.081 161.967L399.861 158.998C399.861 158.998 399.222 157.638 400.083 157.305C400.943 156.972 401.748 156.861 402.886 158.138C404.024 159.414 406.189 160.497 406.799 160.774C407.41 161.051 409.547 160.108 409.547 160.108Z" fill="#F7B68B"/>
<path d="M406.301 164.438C406.301 164.438 406.69 165.437 406.19 166.102C405.69 166.768 404.719 167.573 403.886 167.518C403.054 167.462 397.78 164.715 397.78 164.715L393.784 158.777L390.592 153.949C390.592 153.949 390.925 152.922 391.563 152.811C392.202 152.7 392.673 152.589 393.451 153.283C394.228 153.976 396.892 158.139 396.892 158.139L400.528 161.052C400.528 161.052 405.135 164.021 406.301 164.438Z" fill="#F7B68B"/>
<path d="M385.318 154.669C385.318 154.669 385.596 153.199 386.456 153.337C387.317 153.476 388.815 155.002 390.425 156.695C392.035 158.388 392.84 159.387 392.84 159.387L395.643 161.384L401.916 166.046L402.443 166.768C402.443 166.768 403.165 167.794 402.193 168.072C401.222 168.349 400.528 169.459 398.946 168.738C397.364 168.016 392.118 164.132 392.118 164.132L388.815 159.72L386.484 156.362L385.318 154.669Z" fill="#F7B68B"/>
<path d="M385.595 156.252C384.874 156.28 384.707 157.251 384.707 157.251L389.98 164.993C389.98 164.993 396.142 169.405 396.753 169.738C396.962 169.822 397.186 169.862 397.411 169.857C397.636 169.852 397.858 169.801 398.063 169.708C398.268 169.614 398.452 169.48 398.603 169.314C398.755 169.148 398.871 168.952 398.945 168.739C399.278 167.629 390.48 160.997 390.48 160.997C390.48 160.997 387.011 156.197 385.595 156.252Z" fill="#F7B68B"/>
</g>
<defs>
<clipPath id="clip0_1624_9281">
<rect width="633" height="237" fill="white"/>
</clipPath>
</defs>
</svg>
